<svg version="1.1"
    baseProfile="full"
    xmlns="http://www.w3.org/2000/svg"
    xmlns:xlink="http://www.w3.org/1999/xlink"
    xmlns:ev="http://www.w3.org/2001/xml-events"
    x="0px"
    y="0px"
    width="350px"
    height="112px"
    viewBox="0 0 350 112"
    enable-background="new 0 0 350 112"
  >

  <g>
    <rect x="1" y="1"
        width="348" height="110"
        stroke="rgb(57, 77, 84)"
        stroke-width="3"
        fill="rgb(242, 252, 255)"
    />
  </g>

  <g transform="translate(14,14)">
    <g transform="scale(0.18)">
      <rect x="-43.5" y="37.005" display="none" fill-rule="evenodd" clip-rule="evenodd" fill="#E7E7E7" width="792" height="612"/>
<g>
	<path id="outline_7_" fill-rule="evenodd" fill="#039BC6" clip-rule="evenodd" d="M242.133,168.481h47.146v48.194h23.837
		c11.008,0,22.33-1.962,32.755-5.494c5.123-1.736,10.872-4.154,15.926-7.193c-6.656-8.689-10.053-19.661-11.054-30.476
		c-1.358-14.71,1.609-33.855,11.564-45.368l4.956-5.732l5.905,4.747c14.867,11.946,27.372,28.638,29.577,47.665
		c17.901-5.266,38.921-4.02,54.701,5.088l6.475,3.734l-3.408,6.652c-13.345,26.046-41.246,34.113-68.524,32.687
		c-40.817,101.663-129.68,149.794-237.428,149.794c-55.666,0-106.738-20.81-135.821-70.197l-0.477-0.807l-4.238-8.621
		C4.195,271.415,0.93,247.6,3.145,223.803l0.664-7.127h40.315v-48.194h47.143v-47.145h94.292V74.191h56.574V168.481z"/>
	<g id="Containers_8_">
		<path fill-rule="evenodd" clip-rule="evenodd" fill="#FFFFFF" d="M86.209,179.744h3.227v34.052h-3.227V179.744z M80.02,179.744
			h3.354v34.052H80.02V179.744z M73.828,179.744h3.354v34.052h-3.354V179.744z M67.636,179.744h3.354v34.052h-3.354V179.744z
			 M61.446,179.744H64.8v34.052h-3.354V179.744z M55.384,179.744h3.224v34.052h-3.224V179.744z M51.981,176.338h40.858v40.86H51.981
			V176.338z"/>
		<path fill-rule="evenodd" clip-rule="evenodd" fill="#FFFFFF" d="M133.354,132.598h3.229v34.051h-3.229V132.598z M127.165,132.598
			h3.354v34.051h-3.354V132.598z M120.973,132.598h3.354v34.051h-3.354V132.598z M114.781,132.598h3.354v34.051h-3.354V132.598z
			 M108.593,132.598h3.352v34.051h-3.352V132.598z M102.531,132.598h3.222v34.051h-3.222V132.598z M99.124,129.193h40.863v40.859
			H99.124V129.193z"/>
		<path fill-rule="evenodd" clip-rule="evenodd" fill="#FFFFFF" d="M133.354,179.744h3.229v34.052h-3.229V179.744z M127.165,179.744
			h3.354v34.052h-3.354V179.744z M120.973,179.744h3.354v34.052h-3.354V179.744z M114.781,179.744h3.354v34.052h-3.354V179.744z
			 M108.593,179.744h3.352v34.052h-3.352V179.744z M102.531,179.744h3.222v34.052h-3.222V179.744z M99.124,176.338h40.863v40.86
			H99.124V176.338z"/>
		<path fill-rule="evenodd" clip-rule="evenodd" fill="#FFFFFF" d="M180.501,179.744h3.225v34.052h-3.225V179.744z M174.31,179.744
			h3.355v34.052h-3.355V179.744z M168.12,179.744h3.354v34.052h-3.354V179.744z M161.928,179.744h3.354v34.052h-3.354V179.744z
			 M155.736,179.744h3.354v34.052h-3.354V179.744z M149.676,179.744h3.222v34.052h-3.222V179.744z M146.271,176.338h40.861v40.86
			h-40.861V176.338z"/>
		<path fill-rule="evenodd" clip-rule="evenodd" fill="#FFFFFF" d="M180.501,132.598h3.225v34.051h-3.225V132.598z M174.31,132.598
			h3.355v34.051h-3.355V132.598z M168.12,132.598h3.354v34.051h-3.354V132.598z M161.928,132.598h3.354v34.051h-3.354V132.598z
			 M155.736,132.598h3.354v34.051h-3.354V132.598z M149.676,132.598h3.222v34.051h-3.222V132.598z M146.271,129.193h40.861v40.859
			h-40.861V129.193z"/>
		<path fill-rule="evenodd" clip-rule="evenodd" fill="#FFFFFF" d="M227.647,179.744h3.226v34.052h-3.226V179.744z M221.457,179.744
			h3.354v34.052h-3.354V179.744z M215.265,179.744h3.354v34.052h-3.354V179.744z M209.073,179.744h3.354v34.052h-3.354V179.744z
			 M202.884,179.744h3.354v34.052h-3.354V179.744z M196.821,179.744h3.224v34.052h-3.224V179.744z M193.416,176.338h40.861v40.86
			h-40.861V176.338z"/>
		<path fill-rule="evenodd" clip-rule="evenodd" fill="#FFFFFF" d="M227.647,132.598h3.226v34.051h-3.226V132.598z M221.457,132.598
			h3.354v34.051h-3.354V132.598z M215.265,132.598h3.354v34.051h-3.354V132.598z M209.073,132.598h3.354v34.051h-3.354V132.598z
			 M202.884,132.598h3.354v34.051h-3.354V132.598z M196.821,132.598h3.224v34.051h-3.224V132.598z M193.416,129.193h40.861v40.859
			h-40.861V129.193z"/>
		<path fill-rule="evenodd" clip-rule="evenodd" fill="#FFFFFF" d="M227.647,85.451h3.226v34.053h-3.226V85.451z M221.457,85.451
			h3.354v34.053h-3.354V85.451z M215.265,85.451h3.354v34.053h-3.354V85.451z M209.073,85.451h3.354v34.053h-3.354V85.451z
			 M202.884,85.451h3.354v34.053h-3.354V85.451z M196.821,85.451h3.224v34.053h-3.224V85.451z M193.416,82.048h40.861v40.86h-40.861
			V82.048z"/>
		<path fill-rule="evenodd" clip-rule="evenodd" fill="#FFFFFF" d="M274.792,179.744h3.224v34.052h-3.224V179.744z M268.602,179.744
			h3.352v34.052h-3.352V179.744z M262.408,179.744h3.354v34.052h-3.354V179.744z M256.218,179.744h3.354v34.052h-3.354V179.744z
			 M250.026,179.744h3.354v34.052h-3.354V179.744z M243.964,179.744h3.227v34.052h-3.227V179.744z M240.561,176.338h40.86v40.86
			h-40.86V176.338z"/>
	</g>
	<path fill-rule="evenodd" clip-rule="evenodd" fill="#FFFFFF" d="M137.428,283.445c6.225,0,11.271,5.049,11.271,11.272
		c0,6.225-5.046,11.271-11.271,11.271c-6.226,0-11.272-5.046-11.272-11.271C126.156,288.494,131.202,283.445,137.428,283.445"/>
	<path fill-rule="evenodd" fill="#039BC6" clip-rule="evenodd" d="M137.428,286.644c1.031,0,2.015,0.194,2.923,0.546
		c-0.984,0.569-1.65,1.635-1.65,2.854c0,1.82,1.476,3.293,3.296,3.293c1.247,0,2.329-0.693,2.89-1.715
		c0.395,0.953,0.615,1.999,0.615,3.097c0,4.458-3.615,8.073-8.073,8.073c-4.458,0-8.074-3.615-8.074-8.073
		C129.354,290.258,132.971,286.644,137.428,286.644"/>
	<path fill="#FFFFFF" d="M167.394,364.677c-27.916-13.247-43.239-31.256-51.765-50.915c-10.37,2.961-22.835,4.852-37.317,5.664
		c-5.457,0.307-11.196,0.464-17.219,0.464c-6.942,0-14.26-0.205-21.94-0.613c25.6,25.585,57.094,45.283,115.408,45.645
		C158.866,364.921,163.14,364.837,167.394,364.677z"/>
</g>

    </g>
  </g>

  <g font-family="Courier, Courier New, monospace" font-size="14" fill="rgb(102, 102, 102)">
    <text x="120" y="38" font-weight="bold" font-size="16">
      nodesource/node
    </text>
    <g transform="translate(98,50)">
      <g transform="scale(1.1)">
        <g transform="translate(19.8,-7.1)">
          <polygon style="fill:none;stroke:#039BC6;stroke-width:1;stroke-miterlimit:10;" points="14.5,19.1 9.8,21.6 10.7,16.4 
	6.9,12.6 12.2,11.9 14.5,7.1 16.8,11.9 22.1,12.6 18.3,16.4 19.2,21.6 "/>

        </g>
        <g transform="translate(99.5,0)">
          <path fill="#039BC6"
 d="M16.163,14.224 C16.163,14.224 11.074,14.224 11.074,14.224 C11.074,14.224 11.074,13.436 11.074,13.436 C11.074,13.436 16.164,13.436 16.164,13.436 C18.39,13.436 20.201,11.652 20.201,9.45699999999999 C20.201,7.49100000000001 18.712,5.79900000000001 16.736,5.52199999999999 C16.606,5.50399999999999 16.494,5.42400000000001 16.435,5.309 C15.676,3.81999999999999 14.028,2.98500000000001 12.274,3.38499999999999 C12.08,3.429 11.885,3.327 11.812,3.14500000000001 C11.243,1.71299999999999 9.86700000000002,0.78700000000001 8.31,0.78700000000001 C6.23500000000001,0.78700000000001 4.548,2.45099999999999 4.548,4.49600000000001 C4.548,4.66999999999999 4.56400000000002,4.858 4.59800000000001,5.071 C4.61500000000001,5.17500000000001 4.58800000000002,5.28200000000001 4.52499999999998,5.36699999999999 C4.46199999999999,5.45099999999999 4.36599999999999,5.50700000000001 4.26100000000002,5.52199999999999 C2.28699999999998,5.80099999999999 0.79899999999998,7.49199999999999 0.79899999999998,9.45699999999999 C0.79899999999998,11.651 2.61000000000001,13.436 4.83699999999999,13.436 C4.83699999999999,13.436 8.66000000000003,13.436 8.66000000000003,13.436 C8.66000000000003,13.436 8.66000000000003,14.223 8.66000000000003,14.223 C8.66000000000003,14.223 4.83699999999999,14.223 4.83699999999999,14.223 C2.17000000000002,14.223 0,12.085 0,9.45699999999999 C0,7.232 1.59199999999998,5.30099999999999 3.76299999999998,4.81299999999999 C3.75299999999999,4.70400000000001 3.74799999999999,4.59800000000001 3.74799999999999,4.49600000000001 C3.74799999999999,2.017 5.79500000000002,0 8.31,0 C10.087,0 11.667,0.99199999999999 12.422,2.55500000000001 C14.346,2.25200000000001 16.14,3.172 17.052,4.77500000000001 C19.316,5.191 21,7.16900000000001 21,9.45699999999999 C21,12.085 18.829,14.224 16.163,14.224 ZM7.77499999999998,16.067 C7.77499999999998,16.067 9.37099999999998,17.64 9.37099999999998,17.64 C9.37099999999998,17.64 9.37099999999998,6.72900000000001 9.37099999999998,6.72900000000001 C9.37099999999998,6.50700000000001 9.553,6.327 9.779,6.327 C10.004,6.327 10.187,6.50700000000001 10.187,6.72900000000001 C10.187,6.72900000000001 10.187,17.627 10.187,17.627 C10.187,17.627 11.77,16.067 11.77,16.067 C11.928,15.91 12.186,15.91 12.346,16.067 C12.506,16.224 12.506,16.479 12.346,16.637 C12.346,16.637 10.067,18.882 10.067,18.882 C9.98899999999998,18.96 9.88499999999999,19 9.77699999999999,19 C9.77699999999999,19 9.77499999999998,18.999 9.77199999999999,18.999 C9.77199999999999,18.999 9.76400000000001,19 9.76400000000001,19 C9.661,19 9.55599999999998,18.961 9.476,18.882 C9.476,18.882 7.19799999999998,16.637 7.19799999999998,16.637 C7.03800000000001,16.479 7.03800000000001,16.224 7.19799999999998,16.067 C7.358,15.91 7.61599999999999,15.91 7.77499999999998,16.067 Z "/>

        </g>
        <g transform="translate(175.3,0)">
          <path fill="#039BC6"
 d="M16.548,3.51900000000001 C15.087,1.614 12.659,0.35499999999999 9.88600000000002,0.06299999999999 C9.49000000000001,0.02099999999999 9.089,0 8.69400000000002,0 C4.31799999999998,0 0.697,2.577 0.27100000000002,5.994 C0,8.17099999999999 1.06999999999999,10.366 3.13999999999999,11.894 C3.42599999999999,13.34 3.37099999999998,15.226 1.63,16.292 C1.47399999999999,16.388 1.40899999999999,16.588 1.47699999999998,16.761 C1.53399999999999,16.908 1.67000000000002,17 1.81700000000001,17 C1.84500000000003,17 1.87200000000001,16.997 1.89999999999998,16.99 C2.07400000000001,16.949 6.03300000000002,15.977 7.38900000000001,13.675 C7.66199999999998,13.724 7.93200000000002,13.763 8.19600000000003,13.79 C8.59199999999998,13.833 8.99299999999999,13.853 9.387,13.853 C13.764,13.853 17.385,11.276 17.811,7.85900000000001 C18,6.34399999999999 17.563,4.84299999999999 16.548,3.51900000000001 ZM17.082,7.76300000000001 C16.704,10.802 13.396,13.094 9.387,13.093 C9.017,13.093 8.642,13.074 8.26999999999998,13.035 C7.94600000000003,13.001 7.608,12.948 7.267,12.879 C7.10399999999998,12.845 6.94099999999997,12.928 6.86799999999999,13.081 C6.24099999999999,14.375 4.54599999999999,15.25 3.27300000000002,15.748 C3.99200000000002,14.682 4.18900000000002,13.256 3.827,11.585 C3.80700000000002,11.492 3.75299999999999,11.41 3.67700000000002,11.355 C1.75999999999999,9.99000000000001 0.75999999999999,8.02199999999999 1,6.09100000000001 C1.37799999999999,3.05199999999999 4.68700000000001,0.75999999999999 8.69400000000002,0.75999999999999 C9.06400000000002,0.75999999999999 9.44,0.78100000000001 9.81200000000001,0.81899999999999 C12.351,1.08600000000001 14.655,2.27199999999999 15.972,3.99100000000001 C16.861,5.15100000000001 17.245,6.45500000000001 17.082,7.76300000000001 Z "/>

        </g>
      </g>
      <g transform="translate(0,39)">
        <text transform="translate(37.3,0)" text-anchor="middle">
          1
        </text>
        <text transform="translate(119.6,0)" text-anchor="middle">
          9
        </text>
        <text transform="translate(202.2,0)" text-anchor="middle">
          0
        </text>
      </g>
    </g>
  </g>
  
  <g transform="translate(325,5)">
    <g transform="scale(1.2)">
      <path opacity="0.702" fill="rgb( 170, 180, 192 )"
 d="M8,0 C3.58199999999999,0 0,3.58199999999999 0,8 C0,12.418 3.58199999999999,16 8,16 C12.418,16 16,12.418 16,8 C16,3.58199999999999 12.418,0 8,0 ZM6.75999999999999,11.691 C6.75999999999999,11.691 3.07899999999995,8.00999999999999 3.07899999999995,8.00999999999999 C3.07899999999995,8.00999999999999 4.49300000000005,6.596 4.49300000000005,6.596 C4.49300000000005,6.596 6.75999999999999,8.863 6.75999999999999,8.863 C6.75999999999999,8.863 11.569,4.05500000000001 11.569,4.05500000000001 C11.569,4.05500000000001 12.982,5.46899999999999 12.982,5.46899999999999 C12.982,5.46899999999999 6.75999999999999,11.691 6.75999999999999,11.691 Z "/>

    </g>
  </g>
  
</svg>
